<svg xmlns="http://www.w3.org/2000/svg" viewBox="0 0 260 28" width="260" height="28" shape-rendering="crispEdges" role="img" aria-label="ProofStream">
  <rect x="0" y="0" width="16" height="4" fill="#333333"/>
  <rect x="0" y="4" width="4" height="4" fill="#333333"/>
  <rect x="16" y="4" width="4" height="4" fill="#333333"/>
  <rect x="0" y="8" width="4" height="4" fill="#333333"/>
  <rect x="16" y="8" width="4" height="4" fill="#333333"/>
  <rect x="0" y="12" width="16" height="4" fill="#333333"/>
  <rect x="0" y="16" width="4" height="4" fill="#333333"/>
  <rect x="0" y="20" width="4" height="4" fill="#333333"/>
  <rect x="0" y="24" width="4" height="4" fill="#333333"/>
  <rect x="24" y="0" width="16" height="4" fill="#333333"/>
  <rect x="24" y="4" width="4" height="4" fill="#333333"/>
  <rect x="40" y="4" width="4" height="4" fill="#333333"/>
  <rect x="24" y="8" width="4" height="4" fill="#333333"/>
  <rect x="40" y="8" width="4" height="4" fill="#333333"/>
  <rect x="24" y="12" width="16" height="4" fill="#333333"/>
  <rect x="24" y="16" width="4" height="4" fill="#333333"/>
  <rect x="32" y="16" width="4" height="4" fill="#333333"/>
  <rect x="24" y="20" width="4" height="4" fill="#333333"/>
  <rect x="36" y="20" width="4" height="4" fill="#333333"/>
  <rect x="24" y="24" width="4" height="4" fill="#333333"/>
  <rect x="40" y="24" width="4" height="4" fill="#333333"/>
  <rect x="52" y="0" width="12" height="4" fill="#333333"/>
  <rect x="48" y="4" width="4" height="4" fill="#333333"/>
  <rect x="64" y="4" width="4" height="4" fill="#333333"/>
  <rect x="48" y="8" width="4" height="4" fill="#333333"/>
  <rect x="64" y="8" width="4" height="4" fill="#333333"/>
  <rect x="48" y="12" width="4" height="4" fill="#333333"/>
  <rect x="64" y="12" width="4" height="4" fill="#333333"/>
  <rect x="48" y="16" width="4" height="4" fill="#333333"/>
  <rect x="64" y="16" width="4" height="4" fill="#333333"/>
  <rect x="48" y="20" width="4" height="4" fill="#333333"/>
  <rect x="64" y="20" width="4" height="4" fill="#333333"/>
  <rect x="52" y="24" width="12" height="4" fill="#333333"/>
  <rect x="76" y="0" width="12" height="4" fill="#333333"/>
  <rect x="72" y="4" width="4" height="4" fill="#333333"/>
  <rect x="88" y="4" width="4" height="4" fill="#333333"/>
  <rect x="72" y="8" width="4" height="4" fill="#333333"/>
  <rect x="88" y="8" width="4" height="4" fill="#333333"/>
  <rect x="72" y="12" width="4" height="4" fill="#333333"/>
  <rect x="88" y="12" width="4" height="4" fill="#333333"/>
  <rect x="72" y="16" width="4" height="4" fill="#333333"/>
  <rect x="88" y="16" width="4" height="4" fill="#333333"/>
  <rect x="72" y="20" width="4" height="4" fill="#333333"/>
  <rect x="88" y="20" width="4" height="4" fill="#333333"/>
  <rect x="76" y="24" width="12" height="4" fill="#333333"/>
  <rect x="96" y="0" width="20" height="4" fill="#333333"/>
  <rect x="96" y="4" width="4" height="4" fill="#333333"/>
  <rect x="96" y="8" width="4" height="4" fill="#333333"/>
  <rect x="96" y="12" width="16" height="4" fill="#333333"/>
  <rect x="96" y="16" width="4" height="4" fill="#333333"/>
  <rect x="96" y="20" width="4" height="4" fill="#333333"/>
  <rect x="96" y="24" width="4" height="4" fill="#333333"/>
  <rect x="124" y="0" width="16" height="4" fill="#333333"/>
  <rect x="120" y="4" width="4" height="4" fill="#333333"/>
  <rect x="120" y="8" width="4" height="4" fill="#333333"/>
  <rect x="124" y="12" width="12" height="4" fill="#333333"/>
  <rect x="136" y="16" width="4" height="4" fill="#333333"/>
  <rect x="136" y="20" width="4" height="4" fill="#333333"/>
  <rect x="120" y="24" width="16" height="4" fill="#333333"/>
  <rect x="144" y="0" width="20" height="4" fill="#333333"/>
  <rect x="152" y="4" width="4" height="4" fill="#333333"/>
  <rect x="152" y="8" width="4" height="4" fill="#333333"/>
  <rect x="152" y="12" width="4" height="4" fill="#333333"/>
  <rect x="152" y="16" width="4" height="4" fill="#333333"/>
  <rect x="152" y="20" width="4" height="4" fill="#333333"/>
  <rect x="152" y="24" width="4" height="4" fill="#333333"/>
  <rect x="168" y="0" width="16" height="4" fill="#333333"/>
  <rect x="168" y="4" width="4" height="4" fill="#333333"/>
  <rect x="184" y="4" width="4" height="4" fill="#333333"/>
  <rect x="168" y="8" width="4" height="4" fill="#333333"/>
  <rect x="184" y="8" width="4" height="4" fill="#333333"/>
  <rect x="168" y="12" width="16" height="4" fill="#333333"/>
  <rect x="168" y="16" width="4" height="4" fill="#333333"/>
  <rect x="176" y="16" width="4" height="4" fill="#333333"/>
  <rect x="168" y="20" width="4" height="4" fill="#333333"/>
  <rect x="180" y="20" width="4" height="4" fill="#333333"/>
  <rect x="168" y="24" width="4" height="4" fill="#333333"/>
  <rect x="184" y="24" width="4" height="4" fill="#333333"/>
  <rect x="192" y="0" width="20" height="4" fill="#333333"/>
  <rect x="192" y="4" width="4" height="4" fill="#333333"/>
  <rect x="192" y="8" width="4" height="4" fill="#333333"/>
  <rect x="192" y="12" width="16" height="4" fill="#333333"/>
  <rect x="192" y="16" width="4" height="4" fill="#333333"/>
  <rect x="192" y="20" width="4" height="4" fill="#333333"/>
  <rect x="192" y="24" width="20" height="4" fill="#333333"/>
  <rect x="220" y="0" width="12" height="4" fill="#333333"/>
  <rect x="216" y="4" width="4" height="4" fill="#333333"/>
  <rect x="232" y="4" width="4" height="4" fill="#333333"/>
  <rect x="216" y="8" width="4" height="4" fill="#333333"/>
  <rect x="232" y="8" width="4" height="4" fill="#333333"/>
  <rect x="216" y="12" width="20" height="4" fill="#333333"/>
  <rect x="216" y="16" width="4" height="4" fill="#333333"/>
  <rect x="232" y="16" width="4" height="4" fill="#333333"/>
  <rect x="216" y="20" width="4" height="4" fill="#333333"/>
  <rect x="232" y="20" width="4" height="4" fill="#333333"/>
  <rect x="216" y="24" width="4" height="4" fill="#333333"/>
  <rect x="232" y="24" width="4" height="4" fill="#333333"/>
  <rect x="240" y="0" width="4" height="4" fill="#333333"/>
  <rect x="256" y="0" width="4" height="4" fill="#333333"/>
  <rect x="240" y="4" width="8" height="4" fill="#333333"/>
  <rect x="252" y="4" width="8" height="4" fill="#333333"/>
  <rect x="240" y="8" width="4" height="4" fill="#333333"/>
  <rect x="248" y="8" width="4" height="4" fill="#333333"/>
  <rect x="256" y="8" width="4" height="4" fill="#333333"/>
  <rect x="240" y="12" width="4" height="4" fill="#333333"/>
  <rect x="256" y="12" width="4" height="4" fill="#333333"/>
  <rect x="240" y="16" width="4" height="4" fill="#333333"/>
  <rect x="256" y="16" width="4" height="4" fill="#333333"/>
  <rect x="240" y="20" width="4" height="4" fill="#333333"/>
  <rect x="256" y="20" width="4" height="4" fill="#333333"/>
  <rect x="240" y="24" width="4" height="4" fill="#333333"/>
  <rect x="256" y="24" width="4" height="4" fill="#333333"/>
</svg>
